<svg width="360" height="41" viewBox="0 0 360 41" fill="none" xmlns="http://www.w3.org/2000/svg">
<rect y="0.25" width="360" height="40" rx="20" fill="white"/>
<path d="M134.369 20.4781C134.37 19.7966 134.312 19.1164 134.196 18.4448H124.7V22.296H130.139C130.027 22.9111 129.792 23.4975 129.446 24.0197C129.1 24.542 128.652 24.9893 128.127 25.3348V27.8346H131.373C133.274 26.0944 134.369 23.521 134.369 20.4781Z" fill="#4285F4"/>
<path d="M124.7 30.25C127.417 30.25 129.705 29.3639 131.373 27.8362L128.127 25.3364C127.224 25.9447 126.06 26.2919 124.7 26.2919C122.073 26.2919 119.844 24.5336 119.047 22.1643H115.703V24.7406C116.541 26.3967 117.826 27.7889 119.415 28.7618C121.004 29.7347 122.833 30.2499 124.7 30.25Z" fill="#34A853"/>
<path d="M119.047 22.164C118.626 20.9224 118.626 19.5779 119.047 18.3364V15.7601H115.703C114.998 17.1533 114.631 18.691 114.631 20.2502C114.631 21.8094 114.998 23.347 115.703 24.7402L119.047 22.164Z" fill="#FBBC04"/>
<path d="M124.7 14.2088C126.136 14.1855 127.523 14.7243 128.562 15.7087L131.436 12.8547C129.614 11.1549 127.2 10.2217 124.7 10.2507C122.833 10.2507 121.004 10.766 119.415 11.7389C117.826 12.7117 116.541 14.104 115.703 15.7601L119.047 18.3364C119.844 15.967 122.073 14.2088 124.7 14.2088Z" fill="#EA4335"/>
<path d="M147.056 15.6543C149.452 15.6543 150.952 17.3418 150.952 20.0254C150.952 22.709 149.452 24.3906 147.056 24.3906C144.659 24.3906 143.159 22.709 143.159 20.0254C143.159 17.3418 144.659 15.6543 147.056 15.6543ZM147.056 16.627C145.327 16.627 144.243 17.9395 144.243 20.0254C144.243 22.1055 145.327 23.418 147.056 23.418C148.784 23.418 149.868 22.1055 149.868 20.0254C149.868 17.9395 148.784 16.627 147.056 16.627ZM156.38 24.25H155.326V15.7949H156.38V24.25ZM158.163 24.25V18.1562H159.124V19.1289H159.147C159.487 18.4727 160.137 18.0508 161.081 18.0508C162.417 18.0508 163.19 18.9121 163.19 20.2949V24.25H162.171V20.4766C162.171 19.4922 161.708 18.9531 160.77 18.9531C159.809 18.9531 159.182 19.6328 159.182 20.6641V24.25H158.163ZM164.844 24.25V18.1562H165.863V24.25H164.844ZM165.354 17.1309C165.008 17.1309 164.721 16.8438 164.721 16.498C164.721 16.1465 165.008 15.8652 165.354 15.8652C165.705 15.8652 165.992 16.1465 165.992 16.498C165.992 16.8438 165.705 17.1309 165.354 17.1309ZM172.603 20.1543H171.607C171.46 19.4922 170.945 18.9473 170.048 18.9473C168.993 18.9473 168.279 19.8203 168.279 21.2031C168.279 22.6211 169.005 23.459 170.06 23.459C170.892 23.459 171.437 23.0195 171.612 22.2871H172.614C172.456 23.5 171.437 24.3555 170.054 24.3555C168.366 24.3555 167.241 23.166 167.241 21.2031C167.241 19.2812 168.361 18.0508 170.042 18.0508C171.566 18.0508 172.474 19.0586 172.603 20.1543ZM173.905 24.25V18.1562H174.924V24.25H173.905ZM174.414 17.1309C174.069 17.1309 173.782 16.8438 173.782 16.498C173.782 16.1465 174.069 15.8652 174.414 15.8652C174.766 15.8652 175.053 16.1465 175.053 16.498C175.053 16.8438 174.766 17.1309 174.414 17.1309ZM178.611 23.4883C179.572 23.4883 180.31 22.8145 180.31 21.9355V21.4375L178.681 21.5371C177.861 21.5898 177.392 21.9531 177.392 22.5273C177.392 23.1074 177.879 23.4883 178.611 23.4883ZM178.382 24.3555C177.17 24.3555 176.355 23.623 176.355 22.5273C176.355 21.4844 177.158 20.8281 178.564 20.7461L180.31 20.6465V20.1367C180.31 19.3926 179.818 18.9473 178.974 18.9473C178.189 18.9473 177.697 19.3164 177.568 19.9141H176.584C176.654 18.8594 177.556 18.0508 178.998 18.0508C180.427 18.0508 181.33 18.8242 181.33 20.0371V24.25H180.363V23.2012H180.339C179.976 23.8984 179.203 24.3555 178.382 24.3555ZM190.748 20.1543H189.752C189.605 19.4922 189.09 18.9473 188.193 18.9473C187.139 18.9473 186.424 19.8203 186.424 21.2031C186.424 22.6211 187.15 23.459 188.205 23.459C189.037 23.459 189.582 23.0195 189.758 22.2871H190.76C190.602 23.5 189.582 24.3555 188.199 24.3555C186.512 24.3555 185.387 23.166 185.387 21.2031C185.387 19.2812 186.506 18.0508 188.188 18.0508C189.711 18.0508 190.619 19.0586 190.748 20.1543ZM194.523 24.3555C192.835 24.3555 191.698 23.1426 191.698 21.2031C191.698 19.2578 192.835 18.0508 194.523 18.0508C196.204 18.0508 197.341 19.2578 197.341 21.2031C197.341 23.1426 196.204 24.3555 194.523 24.3555ZM194.523 23.459C195.601 23.459 196.304 22.6387 196.304 21.2031C196.304 19.7676 195.601 18.9473 194.523 18.9473C193.445 18.9473 192.736 19.7676 192.736 21.2031C192.736 22.6387 193.445 23.459 194.523 23.459ZM198.672 24.25V18.1562H199.633V19.1289H199.657C199.996 18.4727 200.647 18.0508 201.59 18.0508C202.926 18.0508 203.7 18.9121 203.7 20.2949V24.25H202.68V20.4766C202.68 19.4922 202.217 18.9531 201.28 18.9531C200.319 18.9531 199.692 19.6328 199.692 20.6641V24.25H198.672ZM215.35 20.752C215.35 23.0371 214.02 24.3906 211.764 24.3906C209.403 24.3906 207.891 22.668 207.891 19.9785C207.891 17.3359 209.397 15.6543 211.764 15.6543C213.593 15.6543 214.981 16.7383 215.298 18.4199H214.19C213.839 17.2773 212.954 16.627 211.764 16.627C210.024 16.627 208.975 17.8809 208.975 19.9727C208.975 22.0996 210.042 23.418 211.764 23.418C213.264 23.418 214.296 22.4453 214.296 21.0273V20.875H211.911V19.9492H215.35V20.752ZM219.371 24.3555C217.684 24.3555 216.547 23.1426 216.547 21.2031C216.547 19.2578 217.684 18.0508 219.371 18.0508C221.053 18.0508 222.189 19.2578 222.189 21.2031C222.189 23.1426 221.053 24.3555 219.371 24.3555ZM219.371 23.459C220.449 23.459 221.152 22.6387 221.152 21.2031C221.152 19.7676 220.449 18.9473 219.371 18.9473C218.293 18.9473 217.584 19.7676 217.584 21.2031C217.584 22.6387 218.293 23.459 219.371 23.459ZM226.046 24.3555C224.359 24.3555 223.222 23.1426 223.222 21.2031C223.222 19.2578 224.359 18.0508 226.046 18.0508C227.728 18.0508 228.864 19.2578 228.864 21.2031C228.864 23.1426 227.728 24.3555 226.046 24.3555ZM226.046 23.459C227.124 23.459 227.827 22.6387 227.827 21.2031C227.827 19.7676 227.124 18.9473 226.046 18.9473C224.968 18.9473 224.259 19.7676 224.259 21.2031C224.259 22.6387 224.968 23.459 226.046 23.459ZM232.674 23.4004C233.735 23.4004 234.444 22.5215 234.444 21.1797C234.444 19.8379 233.735 18.9473 232.674 18.9473C231.625 18.9473 230.94 19.8145 230.94 21.1797C230.94 22.5449 231.625 23.4004 232.674 23.4004ZM232.709 26.5469C231.368 26.5469 230.307 25.791 230.137 24.7539H231.186C231.385 25.3105 231.989 25.6797 232.75 25.6797C233.805 25.6797 234.444 25.0703 234.444 24.1621V23.2012H234.42C234.045 23.8633 233.325 24.2969 232.469 24.2969C230.916 24.2969 229.897 23.0723 229.897 21.1797C229.897 19.2695 230.916 18.0508 232.493 18.0508C233.354 18.0508 234.069 18.4727 234.473 19.1816H234.491V18.1562H235.463V24.127C235.463 25.5801 234.391 26.5469 232.709 26.5469ZM237.146 24.25V15.7949H238.166V24.25H237.146ZM242.286 18.9355C241.331 18.9355 240.663 19.668 240.598 20.6816H243.909C243.886 19.6621 243.247 18.9355 242.286 18.9355ZM243.886 22.5039H244.887C244.712 23.5703 243.68 24.3555 242.35 24.3555C240.604 24.3555 239.544 23.1426 239.544 21.2266C239.544 19.334 240.622 18.0508 242.304 18.0508C243.95 18.0508 244.964 19.2461 244.964 21.0918V21.4785H240.593V21.5371C240.593 22.7031 241.278 23.4707 242.374 23.4707C243.147 23.4707 243.716 23.0781 243.886 22.5039Z" fill="#121212"/>
</svg>
